<svg width="28" height="12" fill="none" xmlns="http://www.w3.org/2000/svg"><path fill-rule="evenodd" clip-rule="evenodd" d="M12.404 10.986V1.003c.725 0 3.265-.058 4.403.352 1.76.676 3.05 2.326 3.05 4.449 0 2.053-.736 3.579-2.244 4.55-1.179.84-4.508.613-5.209.632Zm-10.052 0h3.154l.832-1.283H9.25v1.283h2.21V1.003H8.734l-6.382 9.983Zm12.333-2.761c0 .061.046.113.107.118.064.006.129.008.194.008 1.308 0 2.368-1.076 2.368-2.404 0-1.328-1.06-2.405-2.368-2.405-.065 0-.13.003-.194.008a.118.118 0 0 0-.107.118v4.557Zm-7.33-.611H9.23v-3.24l-1.875 3.24ZM24.71 11c.834-1.52 1.439-3.191 1.439-4.953 0-1.798-.549-3.501-1.416-5.047h-1.46c1.008 1.544 1.626 3.257 1.626 5.047 0 1.754-.671 3.434-1.64 4.953h1.451Zm-2.269 0c.979-1.488 1.677-3.165 1.677-4.953 0-1.826-.647-3.536-1.664-5.047H20.9c1.223 1.505 1.968 3.232 1.968 5.047 0 1.777-.793 3.47-1.968 4.953h1.541Zm-2.478 0c1.201-1.431 2.051-3.12 2.051-4.953 0-1.873-.806-3.596-2.055-5.047h-2.006c1.904 1.313 2.811 3.191 2.811 5.047 0 1.816-.741 3.656-2.709 4.953h1.908Z" fill="#fff"></path></svg>